<?xml version="1.0" standalone="no"?>
<!DOCTYPE svg PUBLIC "-//W3C//DTD SVG 20010904//EN"
 "http://www.w3.org/TR/2001/REC-SVG-20010904/DTD/svg10.dtd">
<svg version="1.0" xmlns="http://www.w3.org/2000/svg"
 width="270.000000pt" height="270.000000pt" viewBox="0 0 270.000000 270.000000"
 preserveAspectRatio="xMidYMid meet">
<metadata>
Created by potrace 1.11, written by Peter Selinger 2001-2013
</metadata>
<g transform="translate(0.000000,270.000000) scale(0.100000,-0.100000)"
fill="#000000" stroke="none">
<path d="M720 1570 l0 -630 630 0 630 0 0 630 0 630 -630 0 -630 0 0 -630z
m726 420 c65 -66 120 -124 122 -129 2 -5 -20 -33 -49 -61 l-52 -51 -96 93
c-53 51 -110 109 -128 129 l-32 35 50 52 c28 29 54 52 58 52 4 0 62 -54 127
-120z m-142 -156 c10 -13 -13 -40 -140 -167 -205 -206 -187 -191 -208 -169
-16 18 -12 23 78 112 51 51 100 96 107 101 8 5 10 9 6 9 -5 0 13 18 38 40 25
22 43 40 40 40 -10 0 49 49 59 50 5 0 14 -7 20 -16z m-377 -382 c9 -15 7 -21
-9 -31 -17 -11 -23 -10 -36 3 -13 12 -13 18 -2 30 17 21 33 20 47 -2z m-80
-69 l20 -17 -22 -22 c-12 -12 -31 -25 -42 -28 -30 -9 -38 20 -13 46 11 12 20
25 20 30 0 13 14 9 37 -9z m942 -142 c5 -7 8 -30 7 -50 l-1 -36 -233 -3 c-152
-1 -232 1 -233 8 -5 40 -4 77 2 85 12 16 448 12 458 -4z m128 -154 c7 -4 11
-26 10 -50 l-2 -42 -365 0 -365 0 -3 40 c-2 27 2 43 12 51 18 13 693 14 713 1z"/>
</g>
</svg>
